/* XPM */
static char *empty_3[] = {
/* columns rows colors chars-per-pixel */
"32 32 64 1 ",
"  c #0F0F15",
". c #1C1B17",
"X c #14151D",
"o c #2E2D1F",
"O c #312F1B",
"+ c #35301A",
"@ c #383218",
"# c #171825",
"$ c #191A28",
"% c #1E202F",
"& c #1F2132",
"* c #272727",
"= c #2A2921",
"- c #21232E",
"; c #2F2F2F",
": c #353322",
"> c #393625",
", c #222436",
"< c #443B0F",
"1 c #4A3F0E",
"2 c #403811",
"3 c #4A3D10",
"4 c #4B4012",
"5 c #504211",
"6 c #5C4D15",
"7 c #6A590F",
"8 c #675413",
"9 c #735D10",
"0 c #77610F",
"q c #7A6917",
"w c #675E21",
"e c #6C6323",
"r c #7C7122",
"t c #806B10",
"y c #8A7213",
"u c #867726",
"i c #877B28",
"p c #AB8A16",
"a c #B19115",
"s c #BB9A13",
"d c #B59318",
"f c #BD9C1C",
"g c #938527",
"h c #B3A130",
"j c #C19E14",
"k c #C7A315",
"l c #C9A317",
"z c #CDA914",
"x c #D1A918",
"c c #DFB716",
"v c #DEB518",
"b c #E1B816",
"n c #E7BB1B",
"m c #EBBF1A",
"M c #DCBD2C",
"N c #D3BA31",
"B c #ECC01A",
"V c #EAC324",
"C c #EFC926",
"Z c #F0C825",
"A c #F1C825",
"S c #F2CF2F",
"D c #F1D12F",
"F c #F2D333",
/* pixels */
",;X;,,,,,,,,,,,,,;X;,,,,,,,,,,,,",
",;X;,,,,,,,,,,,,,;X;,,,%,,,,,,,,",
",;X;,,,,,,,,,,,,,;X;,,%,,,,,,,,,",
",;X;,,,,,,,,;,,,,;X;,,,,,,,;;,,,",
";XXX;;;;;;;;X;;;;;X;;;;;;;;XX;;;",
"XXXXXXXXXXXXXXXXXXXXXXXXXXXXXXXX",
";;;;;;;;XXX;;;;*;;;;X;;;XXX;;;;;",
",,,,,,,,;X;,,-=O*,,;X;,,;X;,,,,,",
",%,,,,,,;X;,->ihw*,,;,,,;X;,,,,,",
"%,,,,,,,;X;,:uMVf6*,,,,,;X;,,,,,",
",,,,,,,,;X;*eMAAma2$,,,,;X;,,,,,",
",,,,,,,,;X;:gFSFCx8*,,,,;X;,,,,,",
";;;;;;;;XX.wNFFCnvp2*;;;XXX;;;;;",
"XXXXXXXXXX.rFDDmcbl1 XXXXXXXXXXX",
"XX;;;;;;;;orFFDmcbj1*;;;X;;;;;;X",
"X;,,,,,,,&*rFFFBcbs<$,,,;,,,,,,;",
"X;,,,,,,,&*rFDFBcbs<$,,,,,,,,,,;",
"X;,,,,,,,&*qFDFBcbs<$,,,,,%,,,,;",
"X;,,,,,,,&*qSFFBcbs<$,,,,,,%,,,;",
"X;,,,,,,,,*9nSSmcca2$,,,,,,,,,,;",
"XX;;;;;;;;=3dAVbbztO;;;;;;;;;;;X",
"XXXXXXXXXXX.0nnbba< XXXXXXXXXXXX",
";;;;;;;;;;;.5anmzt@;;;;;;;;XXX;;",
",,,,,,,,,,,;.6aky+$,%,,,,,,;X;,,",
",,,,,,,,,,,;X=47@$,%,,,,,,,;X;,,",
",,,,%,,,,,,;X;#X$,,,,,,,,,,;X;,,",
",,,,,%,,,,,;X;,,,,,,,,,,,,,;X;,,",
",,,,,,,,,,,;X;,,,,,,,,%,,,,;X;,,",
";;;;;;;;;;;XXX;;;;;;;;;;;;;XXX;;",
"XXXXXXXXXXXXXXXXXXXXXXXXXXXXXXXX",
";XXX;;;;X;;;;;;;;XXX;;;;;;;;;;;;",
",;X;,,,,;,,,,,,,,;X;,,,,,,,,,,,%"
};
