/* XPM */
static char *empty[] = {
/* columns rows colors chars-per-pixel */
"32 32 5 1 ",
"  c #222436",
". c #2F2F2F",
"X c #14151D",
"o c #1E202F",
"O c white",
/* pixels */
" .X.             .X.            ",
" .X.             .X.   o        ",
" .X.             .X.  o         ",
" .X.        .    .X.       ..   ",
".XXX........X.....X........XX...",
"XXXXXXXXXXXXXXXXXXXXXXXXXXXXXXXX",
"........XXX.........X...XXX.....",
"        .X.        .X.  .X.     ",
" o      .X.         .   .X.     ",
"o       .X.             .X.     ",
"        .X.             .X.     ",
"        .X.             .X.     ",
"........XXX.............XXX.....",
"XXXXXXXXXXXXXXXXXXXXXXXXXXXXXXXX",
"XX.............XXX......X......X",
"X.             .X.      .      .",
"X.             .X.             .",
"X.             .X.        o    .",
"X.             .X.         o   .",
"X.         .   .X.             .",
"XX.........X...XXX.............X",
"XXXXXXXXXXXXXXXXXXXXXXXXXXXXXXXX",
"...........XXX.............XXX..",
"           .X.      o      .X.  ",
"           .X.     o       .X.  ",
"    o      .X.             .X.  ",
"     o     .X.             .X.  ",
"           .X.        o    .X.  ",
"...........XXX.............XXX..",
"XXXXXXXXXXXXXXXXXXXXXXXXXXXXXXXX",
".XXX....X........XXX............",
" .X.    .        .X.           o"
};
