/* XPM */
static char *empty_2[] = {
/* columns rows colors chars-per-pixel */
"32 32 105 2 ",
"   c #14151D",
".  c #18161D",
"X  c #1E191E",
"o  c #211A1F",
"O  c #281C1F",
"+  c #2F1E20",
"@  c #311F20",
"#  c #1E202F",
"$  c #292326",
"%  c #2C252C",
"&  c #2F2F2F",
"*  c #3A2422",
"=  c #30262E",
"-  c #322E2E",
";  c #392B2D",
":  c #39312F",
">  c #222436",
",  c #282735",
"<  c #2F2931",
"1  c #2F2F3C",
"2  c #392E35",
"3  c #323030",
"4  c #3B3233",
"5  c #33333F",
"6  c #3C3138",
"7  c #3D3B39",
"8  c #452C24",
"9  c #462E2A",
"0  c #4B342E",
"q  c #4F382E",
"w  c #513329",
"e  c #5A3D2E",
"r  c #423734",
"t  c #4B3735",
"y  c #463837",
"u  c #4C3934",
"i  c #4A3739",
"p  c #4D3D3B",
"a  c #523D34",
"s  c #513E3A",
"d  c #5E402F",
"f  c #52403D",
"g  c #614332",
"h  c #6B4734",
"j  c #6B4C3C",
"k  c #704C37",
"l  c #774E38",
"z  c #7A4F39",
"x  c #75513E",
"c  c #7B503A",
"v  c #333441",
"b  c #464241",
"n  c #524644",
"m  c #5D4645",
"M  c #554946",
"N  c #5B4A44",
"B  c #534B4B",
"V  c #5A4E4B",
"C  c #5C524F",
"Z  c #575251",
"A  c #5D5453",
"S  c #624F45",
"D  c #664E48",
"F  c #754F47",
"G  c #675245",
"H  c #6F5646",
"J  c #6E544F",
"K  c #775340",
"L  c #7B5442",
"P  c #71514A",
"I  c #7A544C",
"U  c #74594F",
"Y  c #7B5A4A",
"T  c #635753",
"R  c #6A5750",
"E  c #615957",
"W  c #695954",
"Q  c #625A5A",
"!  c #735950",
"~  c #7A665D",
"^  c #7C685F",
"/  c #6B6564",
"(  c #6F6B6B",
")  c #746760",
"_  c #7B6A61",
"`  c #7A7776",
"'  c #7B7877",
"]  c #7F7C7C",
"[  c #834E3B",
"{  c #8A4E3C",
"}  c #805341",
"|  c #8A5045",
" . c #80534A",
".. c #895348",
"X. c #855D4F",
"o. c #8B5D50",
"O. c #8A6058",
"+. c #846E64",
"@. c #87736C",
"#. c #8A726C",
"$. c #91756D",
"%. c #84807F",
"&. c #8A8786",
"*. c #8D8988",
"=. c #928D8C",
/* pixels */
"> &   & > > > > > > > > > > > > > &   & > > > > > > > > > > > > ",
"> &   & > > > > > > > > > > > > > &   & > > > # > > > > > > > > ",
"> &   & > > > > > > > > > > > > > &   & > > # > > > > > > > > > ",
"> &   & > > > > > > > > & > > > > &   & > > > > > > > & & > > > ",
"&       & & & & & & & &   & & & & &   & - - & & & & &     & & & ",
"                        O + + + + + + X                         ",
"& & & & & & & - @ * * 9 M C C C C C C p * 9 9 ;       & & & & & ",
"> > > > > > ; 9 V E Q Q  .| | | | | | ! Q Q Q f 0 o & > > > > > ",
"> # > > > 2 m J  .| #.&.o.{ { { { { { #.&.O...I J t : > > > > > ",
"# > > > 2 m L | { { $.*.X.[ [ [ [ [ [ @.=.o.{ | | F f 2 > > > > ",
"> > > > i P } { [ [ +.] Y z z z z z z _ %.X.[ [ { } D 2 > > > > ",
"> > > > p U } z c z ^ ' Y z z z z z z _ ' Y z z z } R 6 > > > > ",
"& & & - p ! L c z z ~ ' Y z l l l z z _ ` Y c c z L R r - & & & ",
"      . y U L z z z ~ ` Y h e e e d k _ ` Y z z z L R - .       ",
"    & - p ! L c c c ^ ' H e N W W a g ) ` Y c c z L W r - & &   ",
"  & > > ; 0 w w w w a f 0 8 T b ( s 8 u s w w w w w 0 = > > > & ",
"  & > > 4 Q / / / / / / / V Q - Q N Q / / / / / / / V 2 > > > & ",
"  & > > 2 C Q Q Q Q Q Q Q M V B A f A Q Q Q Q Q Q Q n < > > > & ",
"  & > > - p a a a a a a a u a a a q a a a a a a a a y % > > > & ",
"  & > > 4 N j h h h h h h h h h h h h h h h h h h j n 2 > > > & ",
"    & & 4 G c z c c c l z z z z l l z z z z z z z K N 3 & & &   ",
"        - S x z c c c c z z z z c c z z z z z z z x M $         ",
"& & & & 4 V j h k l k h h h k k j j k h k k k k k G M $     & & ",
"> > > > 2 Z T G G G G G G G G G G G G G G G G G G E B -   & > > ",
"> > > > , 5 v 5 5 5 5 7 & 7 5 5 v 5 5 5 5 5 5 5 5 v 1 -   & > > ",
"> > > > # > > > > > > 3   3 > > > > > > > > > > > > > &   & > > ",
"> > > > > # > > > > > &   & > > > > > > > > > > > > > &   & > > ",
"> > > > > > > > > > > &   & > > > > > > > > # > > > > &   & > > ",
"& & & & & & & & & & &       & & & & & & & & & & & & &       & & ",
"                                                                ",
"&       & & & &   & & & & & & & &       & & & & & & & & & & & & ",
"> &   & > > > > & > > > > > > > > &   & > > > > > > > > > > > # "
};
