/* XPM */
static char *empty_2_2[] = {
/* columns rows colors chars-per-pixel */
"32 32 169 2 ",
"   c #0E0D0B",
".  c #110E0C",
"X  c #1C140F",
"o  c #0F0F10",
"O  c #131212",
"+  c #1A1513",
"@  c #1D1915",
"#  c #14151D",
"$  c #18161D",
"%  c #1D1C1B",
"&  c #231B16",
"*  c #291D16",
"=  c #241D1A",
"-  c #291D1A",
";  c #22241B",
":  c #2D211C",
">  c #39271E",
",  c #1A1A24",
"<  c #1D1D2A",
"1  c #1E202F",
"2  c #252423",
"3  c #2A2324",
"4  c #2F2921",
"5  c #2C252E",
"6  c #272B2E",
"7  c #2F2F2F",
"8  c #342622",
"9  c #332A24",
"0  c #3C2A25",
"q  c #30262E",
"w  c #332D2D",
"e  c #36322D",
"r  c #3D312C",
"t  c #222436",
"y  c #282735",
"u  c #272D30",
"i  c #2F2B34",
"p  c #2F2F3C",
"a  c #392D34",
"s  c #2B3236",
"d  c #373230",
"f  c #3C3332",
"g  c #3C3636",
"h  c #31313D",
"j  c #3C3B3E",
"k  c #432F25",
"l  c #422E2A",
"z  c #4D3226",
"x  c #47332E",
"c  c #4A342D",
"v  c #503427",
"b  c #523329",
"n  c #57392B",
"m  c #433633",
"M  c #4E3632",
"N  c #463837",
"B  c #4D3B36",
"V  c #4A3739",
"C  c #4D3D3B",
"Z  c #503732",
"A  c #523C36",
"S  c #583F39",
"D  c #613B30",
"F  c #3D4334",
"G  c #4C433C",
"H  c #57403B",
"J  c #5B423D",
"K  c #544A3B",
"L  c #674432",
"P  c #6C4734",
"I  c #6B4C3C",
"U  c #754C37",
"Y  c #714F3E",
"T  c #794F39",
"R  c #76503D",
"E  c #7A513C",
"W  c #343942",
"Q  c #38444A",
"!  c #3F4D55",
"~  c #464445",
"^  c #524644",
"/  c #5E4541",
"(  c #534B45",
")  c #5B4B43",
"_  c #504949",
"`  c #594F4B",
"'  c #4F5143",
"]  c #555246",
"[  c #575449",
"{  c #5A544E",
"}  c #5E5B4F",
"|  c #434D54",
" . c #46535C",
".. c #4D565D",
"X. c #5A5454",
"o. c #604742",
"O. c #634A45",
"+. c #694F49",
"@. c #754E4A",
"#. c #655148",
"$. c #6C524B",
"%. c #775340",
"&. c #7C5342",
"*. c #70544D",
"=. c #74594F",
"-. c #6A5750",
";. c #655B57",
":. c #6C5952",
">. c #625B5A",
",. c #7F5551",
"<. c #735A50",
"1. c #7B5E56",
"2. c #7F5F58",
"3. c #646D56",
"4. c #726157",
"5. c #7B625B",
"6. c #67705A",
"7. c #69785D",
"8. c #4C5961",
"9. c #525E65",
"0. c #55616A",
"q. c #6B6463",
"w. c #7C6D63",
"e. c #6E7B60",
"r. c #737B66",
"t. c #81524E",
"y. c #875450",
"u. c #85665E",
"i. c #89675E",
"p. c #8B6960",
"a. c #9D6963",
"s. c #83756C",
"d. c #8A7068",
"f. c #927166",
"g. c #99756B",
"h. c #94786C",
"j. c #847A73",
"k. c #9F7F72",
"l. c #A76F69",
"z. c #A37F74",
"x. c #B27E75",
"c. c #76836A",
"v. c #7E8A72",
"b. c #988678",
"n. c #A48276",
"m. c #A98478",
"M. c #AF887B",
"N. c #B38A7E",
"B. c #8E8981",
"V. c #96918B",
"C. c #9A9690",
"Z. c #A49487",
"A. c #BB9184",
"S. c #AE9F94",
"D. c #C09587",
"F. c #C99D8F",
"G. c #CE9F90",
"H. c #CFA192",
"J. c #C1AD9A",
"K. c #D9AA9B",
"L. c #DBAC9C",
"P. c #C5B29E",
"I. c #CAB7A4",
"U. c #DFB0A0",
"Y. c #E1B2A2",
"T. c #D1C0AF",
"R. c #D4C3B3",
"E. c #D8C7B7",
"W. c #DBCBBC",
/* pixels */
"t 7 # 7 t t t t , = & & & x A Z : & 8 Z > = , t t t t t t t t t ",
"t 7 # 7 t t t < . 8 c M M J O.o.Z M A O.Z 8 + < t t t t t t t t ",
"t 7 # 7 t t t t 1 O 0 o.o.O.O.O.o.o.O.O.O.J m O < t t t t t t t ",
"t 7 # 7 t t t < # 9 A O.O.O.O.O.O.O.O.O.O.O.J 8 % , t 7 7 t t t ",
"7 # # # 7 7 7 2 . B O.O.O./ J J O./ / O.O.O./ M : = 2 # # 7 7 7 ",
"# # # # # # # O . B O.O.O.S Z M o.J S O.O.O./ M c >   # # # # # ",
"7 7 7 7 7 7 % & 0 M J O.O.g.i.M o.f.g.O.O.O.O./ > O # 7 7 7 7 7 ",
"t t t t t t 3 - : l A *.g.D.N.i.+.z.D.g.*.O.O.O.- O 7 t t t t t ",
"t 1 t t t a / C   l J 1.G.N.A.F.p.N.F.z.u.$./ O.9 : 9 t t t t t ",
"1 t t t a / &.D . B O.1.G.A $.Y.H.K.n.@ z.p.Z O.O.r + 5 t t t t ",
"t t t t V *.b > l J ,.l.H.J *.Y.U.Y.n.- m.x.y.J 9 0 B a t t t t ",
"t t t t C =.n > 0 A @.a.G.f.z.Y.Y.Y.F.1.A.x.t.S & 0 -.f t t t t ",
"7 7 7 9 C <.&.n X l Z $.A.K.Y.Y.Y.Y.Y.Y.F.p.A M - k -.m 9 7 7 7 ",
"# # # $ N =.&.U L * 8 J O.N.K.Y.Y.Y.Y.H.2.J x + v Y -.9 $ # # # ",
"# # 7 9 C <.&.E T n r 8 A J f.K.K.K.N.) H w > z P &.:.m 9 7 7 # ",
"# 7 t t w c b b b b : @ ) 9 #.H.H.H.h.+ G 9 X z b b c q t t t 7 ",
"# i t t f >.q.q.q.q.f ; 7.G 4.J.J.J.b.r 3.F = >.q.q.` a t t t 7 ",
"# i t t a { >.>.>.>.d ; 7.] s.R.R.I.b.C 3.F % X.>.>.^ i t t t 7 ",
"# 7 t t 9 C Z Z Z 9 - e c.{ j.W.W.R.Z.G e.' = : x Z B 5 t t t 7 ",
"# 7 t t f ) I P L & = G v.} s.R.W.W.S.^ r.} 8   z I ^ a t t t 7 ",
"# # 7 7 f #.E T U & 3 ( e.[ w.P.E.W.S.G 6.] 8   n %.) d 7 7 7 # ",
"# # # # 9 O.R L : 9 m G G G s.T.I.R.S.G G 9 & 9 > c ( 3 # # # # ",
"7 7 7 7 f ` +.b . :.d.5.w m ;.C.B.V.j.m w = = 5.9 9 ( 3 # # 7 7 ",
"t t t t a X.;.G & k.F.m.m f ~  . . .| f r = 9 M.B e _ 9 # 7 t t ",
"t t t t y h W h i 3 : 7 | ..9.0.0.0.9.9.| 6 . = 7 h p 9 # 7 t t ",
"t t t t 1 t t t t , O % ! 9.0.0.8.9.0.0. .6   , t t t 7 # 7 t t ",
"t t t t t 1 t t t t # %  .9.0.8.W | 9.0. .6 O t t t t 7 # 7 t t ",
"t t t t t t t t t t # % 9.0.8.Q O s  .0. .6 . t t t t 7 # 7 t t ",
"7 7 7 7 7 7 7 7 7 7 % @ ( ] f % 2 % 6  . .u O 7 7 7 7 # # # 7 7 ",
"# # # # # # # # # # # + 4 9 = O # o % j j 2   # # # # # # # # # ",
"7 # # # 7 7 7 7 # 7 7 7 O O % 7 7 o + w w = O 7 i 7 7 7 7 7 7 7 ",
"t 7 # 7 t t t t 7 t t t t t t t t @ & K K 9 O t t t t t t t t 1 "
};
