/* XPM */
static char *empty_6[] = {
/* columns rows colors chars-per-pixel */
"32 32 141 2 ",
"   c #0E0C0B",
".  c #100E0C",
"X  c #15110E",
"o  c #0F0F10",
"O  c #100F11",
"+  c #131213",
"@  c #1B1514",
"#  c #1B1916",
"$  c #14151D",
"%  c #1A171C",
"&  c #1C1B1A",
"*  c #211B16",
"=  c #231C1B",
"-  c #2A1E1B",
";  c #22201E",
":  c #2C221D",
">  c #32231F",
",  c #1B1B25",
"<  c #1E1E2D",
"1  c #1E202F",
"2  c #1F2130",
"3  c #252423",
"4  c #2B2624",
"5  c #262B2E",
"6  c #2F2F2F",
"7  c #332522",
"8  c #392723",
"9  c #342A26",
"0  c #3B2925",
"q  c #372A28",
"w  c #3C2D29",
"e  c #36312B",
"r  c #3A322D",
"t  c #3F382F",
"y  c #222436",
"u  c #272D30",
"i  c #2D3337",
"p  c #2D353A",
"a  c #3C3536",
"s  c #412F2B",
"d  c #48312C",
"f  c #433532",
"g  c #4B3631",
"h  c #4F3A35",
"j  c #4A3D3A",
"k  c #523B36",
"l  c #583F3A",
"z  c #474137",
"x  c #4C4134",
"c  c #4C423C",
"v  c #514038",
"b  c #5A423D",
"n  c #524B3E",
"m  c #3F4145",
"M  c #3D474D",
"N  c #3F4D55",
"B  c #4F4440",
"V  c #40484E",
"C  c #5E4541",
"Z  c #514C41",
"A  c #5F4C46",
"S  c #555545",
"D  c #58554A",
"F  c #595949",
"G  c #424D54",
"H  c #445056",
"J  c #44525B",
"K  c #5F5C51",
"L  c #604742",
"P  c #634A45",
"I  c #694D47",
"U  c #674D48",
"Y  c #704C48",
"T  c #7A4E4B",
"R  c #6B524B",
"E  c #72554D",
"W  c #625A57",
"Q  c #6B5950",
"!  c #705950",
"~  c #7C5E57",
"^  c #646652",
"/  c #646D56",
"(  c #6A735D",
")  c #6C795E",
"_  c #4C5A62",
"`  c #515E66",
"'  c #556169",
"]  c #7D6D64",
"[  c #6E7B61",
"{  c #77726F",
"}  c #787F6C",
"|  c #805551",
" . c #885451",
".. c #82625A",
"X. c #8B685F",
"o. c #8A6C63",
"O. c #966660",
"+. c #83756D",
"@. c #907065",
"#. c #91746A",
"$. c #95786E",
"%. c #9C796D",
"&. c #867971",
"*. c #957E71",
"=. c #9C7C72",
"-. c #A8706A",
";. c #A37E73",
":. c #AB7B72",
">. c #B47E75",
",. c #738066",
"<. c #818D75",
"1. c #83807B",
"2. c #988678",
"3. c #A48276",
"4. c #AA8277",
"5. c #AC857A",
"6. c #898783",
"7. c #8D8B88",
"8. c #B98F82",
"9. c #A19083",
"0. c #BA9083",
"q. c #AE9F94",
"w. c #C19688",
"e. c #CA9D8F",
"r. c #CD9F91",
"t. c #CEA192",
"y. c #C5A997",
"u. c #D4A596",
"i. c #D7A99A",
"p. c #DCAE9E",
"a. c #C5B29F",
"s. c #C6B3A0",
"d. c #CAB7A5",
"f. c #CDBCAA",
"g. c #DFB0A1",
"h. c #D0BEAD",
"j. c #E3B4A4",
"k. c #D1C0AF",
"l. c #D3C2B2",
"z. c #D8C7B8",
"x. c #DACABB",
/* pixels */
"y 6 $ 6 y y y y y $ + + + : 8 7 @ + @ 7 % , y y y y y y y y y y ",
"y 6 $ 6 y y y 1 % = - - - g l k > - 0 l 7 = , < y y y y y y y y ",
"y 6 $ 6 y y y < + 7 d k k C P P l k l P l w = , y y y y y y y y ",
"y 6 $ 6 y y y y 1 + w P P P P P P P P P P P l X , y y 6 6 y y y ",
"6 $ $ $ 6 6 6 3 X g C P P P P P P P P P P P b d * & 6 $ $ 6 6 6 ",
"$ $ $ $ $ $ $ + . h P P P l k l P b l P P P C g 0 -   $ $ $ $ $ ",
"6 6 6 6 6 6 3 = : h C P P ..E g L ~ ..P P P P b 0 * + 6 6 6 6 6 ",
"y y y y y y , & 0 d l R ..8.4.E P ;.8...R P P P - o 6 y y y y y ",
"y 1 y y y y y ,   w b ~ r.w.w.w.~ 5.r.0...U P P : + 6 y y y y y ",
"1 y y y y y y , . h P ~ r.b ! g.e.i.3.: ;.X.k P C w + 2 y y y y ",
"y y y y y y , = s b | -.t.b E j.g.j.3.- 4.>. .b 9 & 3 y y y y y ",
"y y y y y y < & 7 l Y O.r.%.5.j.j.j.w.o.w.:.T l * o 6 y y y y y ",
"6 6 6 6 6 6 6 4 . 7 g I 4.u.j.j.j.j.j.p.8...k s @ + $ 6 6 6 6 6 ",
"$ $ $ $ $ $ $ $ $   : h l %.t.j.j.j.i.8.R k w . + $ $ $ $ $ $ $ ",
"$ $ 6 6 6 6 6 6 6 6 & * k 7 R u.u.u.%.* g 7 @ 6 $ 6 6 6 6 6 6 $ ",
"$ 6 y y y y y y y $ & r ^ t Q y.y.y.*.4 F c = + 4 y y y y y y 6 ",
"$ 6 y y y y y y y + = f ) Z ] f.f.a.2.f / S 7   , y y y y y y 6 ",
"$ 6 y y y y y y , @ - f ,.D &.x.x.h.9.c ( D 7 @ , 1 1 y y y y 6 ",
"$ 6 y y y y y ,   7 w c <.K &.x.x.x.q.B } K w w @ $ y 1 y y y 6 ",
"$ 6 y y y y y ,   r f f [ D ] s.z.x.q.c ( S w j * $ y y y y y 6 ",
"$ $ 6 6 6 6 ; = r j 9 = z c +.k.d.l.q.c c 9 = j a 4 # 6 6 6 6 $ ",
"$ $ $ $ $ $ o w =.#.j X 0 d W 7.1.6.{ f w = : o.$.A   $ $ $ $ $ ",
"6 6 6 6 6 6 ; f 3.%.v + a a m J J J V a a ; : @.=.R # $ $ $ 6 6 ",
"y y y y y y y <       & N J J J J J J J J u       $ y 6 $ 6 y y ",
"y y y y y y y y y y $ & N _ ' ' ' ' ' ' J u O 1 y y y 6 $ 6 y y ",
"y y y y 1 y y y y y $ & N ` ' ' _ ` ' ' J 5 + y y y y 6 $ 6 y y ",
"y y y y y 1 y y y y $ & N ` ` J i M ` ' J u + y y y y 6 $ 6 y y ",
"y y y y y y y y y y $ & N _ G p $ 5 M ` J u O y y y y 6 $ 6 y y ",
"6 6 6 6 6 6 6 6 6 6 & & G H i . 6 # & G G 5 + 6 6 6 6 $ $ $ 6 6 ",
"$ $ $ $ $ $ $ $ $ $ O # n n e   $ o @ q q =   $ $ $ $ $ $ $ $ $ ",
"6 $ $ $ 6 6 6 6 $ 6 6 3 * * ; 3 6 o * x x : + 6 6 6 6 6 6 6 6 6 ",
"y 6 $ 6 y y y < 6 < < < O + $ < < = @ r e 3 $ 1 < < 2 y y y y 1 "
};
