/* XPM */
static char *player[] = {
/* columns rows colors chars-per-pixel */
"32 32 161 2 ",
"   c #0E0C0A",
".  c #120E0B",
"X  c #15110E",
"o  c #19130F",
"O  c #100F13",
"+  c #1B1511",
"@  c #1D1A17",
"#  c #14151D",
"$  c #18161D",
"%  c #1D1C1C",
"&  c #221916",
"*  c #221C1C",
"=  c #2B1D1C",
"-  c #24211B",
";  c #2D231E",
":  c #33221A",
">  c #1C1D29",
",  c #1E2126",
"<  c #1E202E",
"1  c #242322",
"2  c #2A2325",
"3  c #2D2827",
"4  c #2F2F2F",
"5  c #332522",
"6  c #382723",
"7  c #342A24",
"8  c #3A2A25",
"9  c #30262E",
"0  c #332E2E",
"q  c #3B2D2A",
"w  c #3B312B",
"e  c #222436",
"r  c #282735",
"t  c #2F2931",
"y  c #2F2F3C",
"u  c #392E35",
"i  c #373130",
"p  c #3B3233",
"a  c #33333F",
"s  c #3C3138",
"d  c #432D21",
"f  c #472D2D",
"g  c #4A3123",
"h  c #44322D",
"j  c #4A332F",
"k  c #503427",
"l  c #513329",
"z  c #553B2B",
"x  c #423633",
"c  c #4D3632",
"v  c #453934",
"b  c #4B3934",
"n  c #4A3739",
"m  c #4C3D3B",
"M  c #523C35",
"N  c #583F3A",
"B  c #6E3F31",
"V  c #494136",
"C  c #4B433B",
"Z  c #4E493E",
"A  c #54433C",
"S  c #5A433D",
"D  c #65422F",
"F  c #654331",
"G  c #694734",
"H  c #6D4935",
"J  c #61433C",
"K  c #6B4C3C",
"L  c #714334",
"P  c #744A36",
"I  c #7A4F39",
"U  c #75513E",
"Y  c #7A513B",
"T  c #333441",
"R  c #353E43",
"E  c #3B3E42",
"W  c #384146",
"Q  c #3B454C",
"!  c #434443",
"~  c #534644",
"^  c #5D4642",
"/  c #544B45",
"(  c #5C4C44",
")  c #534C4C",
"_  c #594F4B",
"`  c #555047",
"'  c #575449",
"]  c #5A534B",
"[  c #4B4F54",
"{  c #4C5155",
"}  c #49575F",
"|  c #555453",
" . c #5F5A50",
".. c #604742",
"X. c #624A44",
"o. c #664E48",
"O. c #754F47",
"+. c #774F4B",
"@. c #7A4F4C",
"#. c #675245",
"$. c #6D544D",
"%. c #775340",
"&. c #7B5442",
"*. c #74594F",
"=. c #615752",
"-. c #6A5750",
";. c #605A57",
":. c #6A5851",
">. c #745A50",
",. c #56614B",
"<. c #5B6550",
"1. c #5F6B53",
"2. c #656F57",
"3. c #666D58",
"4. c #4F5C64",
"5. c #525D64",
"6. c #5D6467",
"7. c #57636A",
"8. c #6B6463",
"9. c #727966",
"0. c #8A4E3C",
"q. c #835242",
"w. c #8A5244",
"e. c #805F55",
"r. c #8F5855",
"t. c #915D5A",
"y. c #84645B",
"u. c #826A5F",
"i. c #8A685F",
"p. c #8D6B62",
"a. c #916E65",
"s. c #95766A",
"d. c #8E7E72",
"f. c #A57F74",
"g. c #78816C",
"h. c #988679",
"j. c #A68075",
"k. c #A98277",
"l. c #A98579",
"z. c #9D8F84",
"x. c #9F9086",
"c. c #B58D81",
"v. c #BC8E82",
"b. c #BB9486",
"n. c #AB9B90",
"m. c #C39286",
"M. c #C49689",
"N. c #CA9C8E",
"B. c #C59D90",
"V. c #C99E90",
"C. c #CAA594",
"Z. c #C2AE9C",
"A. c #DDAF9F",
"S. c #C4B19F",
"D. c #CBB9A7",
"F. c #CCBAA8",
"G. c #DEB0A0",
"H. c #D0BEAD",
"J. c #E2B3A3",
"K. c #D7C7B8",
"L. c #D8C8B9",
/* pixels */
"e 4 # 4 e e e e e e e e e e e e e 4 # 4 e e e e e e e e e e e e ",
"e 4 # 4 e e e e e e e e e > # > e 4 + 4 e e e < e e e e e e e e ",
"e 4 # 4 e e e e e e > > > * = * > * & 1 e e > e e e e e e e e e ",
"e 4 # 4 e e e e e > & & & h M 8 & 5 h & > e e e e e e 4 4 e e e ",
"4 # # # 4 4 4 4 4 + 6 c M ^ X.S M N ^ c * 1 4 4 4 4 4 # # 4 4 4 ",
"# # # # # # # # # # + A X.X.X.X.X.X.X.X.^ o # # # # # # # # # # ",
"4 4 4 4 4 4 4 0 =   ^ X.X.X.X.X.X.X.X.X...j + 2 # # # 4 4 4 4 4 ",
"e e e e e e q f ~ . ^ X.X.M c N S M X.X.X.c j + 8 * 4 e e e e e ",
"e < e e e u ^ ^ + j c X.X.f.e.N p.f.X.X.X.X.+ J $.c w e e e e e ",
"< e e e u ^ &.q.B o j X.k.N.M.a.a.N.k.X.X.X.X L w.O.A u e e e e ",
"e e e e n *.q.0.P   S X.c.$.s.N.M.l.S j.M X.N : L q.o.u e e e e ",
"e e e e m *.q.L : q X.t.m.S s.G.G.f.c M.r.S 5 k P q.-.s e e e e ",
"4 4 4 0 m >.&.P g ; S +.v.k.M.J.J.V.f.M.@.N X F I &.-.x 0 4 4 4 ",
"# # # $ v *.&.I P d 5 M y.M.A.J.J.G.N.i.N 5 d P I &.-.0 $ # # # ",
"# # 4 0 m >.&.Y Y I x q b *.c.A.A.b.>.M 8 8 P Y I &.:.x 0 4 4 # ",
"# 4 e e q j l l l l M + V 7 u.C.C.s.; A . l l l l l j 9 e e e 4 ",
"# 4 e e p ;.8.8.8.8.8.@ ,.Z d.S.Z.h.C 1.+ 8.8.8.8.8.) u e e e 4 ",
"# 4 e e u ] ;.;.;.;.) @ <.] x.L.H.h.` 2.+ ) ;.;.;.;.~ t e e e 4 ",
"# 4 e e 0 m M M M M . 5 9. .z.K.L.n.] g.8   b M M M v 9 e e e 4 ",
"# 4 e e p ( K H H G X x 3.' d.F.L.n./ 2.8   F H H K ~ u e e e 4 ",
"# # 4 4 p #.Y I H o v m x m z.F.D.n.m q X v + F I %.( i 4 4 4 # ",
"# # # # 0 X.U I H . b.B.^ q | 6.6.| q 5 + c.& D I U / 2 # # # # ",
"4 4 4 4 p _ K H H z v v ! [ 5.5.5.5.{ E . h z H P #./ 2 # # 4 4 ",
"e e e e u | =.#.#.#.v X R 5.7.5.4.7.5.Q . v ] #.#.;.) 0 # 4 e e ",
"e e e e r a T a a a a + Q 5.4.W R 4.5.Q   a T a a T y 0 # 4 e e ",
"e e e e < e e e e e e X ! | E < , R } Q   e e e e e e 4 # 4 e e ",
"e e e e e < e e e e e % 3 w 1 > > % E a   e e e e e e 4 # 4 e e ",
"e e e e e e e e e e e 4 O + > e > + w 7   e < e e e e 4 # 4 e e ",
"4 4 4 4 4 4 4 4 4 4 4 # # # 4 4 1 - V w + 4 4 4 4 4 4 # # # 4 4 ",
"# # # # # # # # + + + + O O + + + + O O + + + + # # # # # # # # ",
"4 # # # 4 4 4 4 # 1 1 1 1 1 1 1 1 + + + 1 1 1 4 4 4 4 4 4 4 4 4 ",
"e 4 # 4 e e e e 4 e e e e e e e e 4 # 4 e e e e e e e e e e e < "
};
